<svg width="16" height="16" viewBox="0 0 16 16" fill="none" xmlns="http://www.w3.org/2000/svg">
  <path
    d="M9.5064 6.3921L13 5.89695L12.5051 2.40137L11.3504 2.56642L11.5743 4.12263C11.1383 3.77484 10.6493 3.50368 10.125 3.30916C9.53586 3.09105 8.91726 2.98495 8.31044 2.98495C7.54456 2.98495 6.78457 3.15 6.07171 3.486C4.7815 4.08726 3.80352 5.14831 3.32043 6.48053C2.31889 9.22747 3.74461 12.2809 6.49 13.2831C7.07325 13.4953 7.68596 13.6014 8.28688 13.6014C9.67136 13.6014 11.0382 13.0591 12.0456 12.0511L11.2149 11.214C10.4255 11.998 9.36501 12.4224 8.28688 12.4224C7.81557 12.4224 7.34425 12.3399 6.89062 12.1748C4.75793 11.3967 3.65035 9.02116 4.42801 6.88726C4.80506 5.84979 5.55916 5.02453 6.5607 4.55884C7.11449 4.29947 7.70952 4.16979 8.29866 4.16979C8.77586 4.16979 9.25307 4.25231 9.7126 4.42326C10.1073 4.56474 10.4726 4.77105 10.8084 5.03042L9.34144 5.23674L9.5064 6.3921Z"
    fill="current"
  />
</svg>
